<?xml version="1.0" encoding="utf-8"?>
<!-- Generator: Adobe Illustrator 25.3.1, SVG Export Plug-In . SVG Version: 6.00 Build 0)  -->
<svg version="1.1" id="Capa_1" xmlns="http://www.w3.org/2000/svg" xmlns:xlink="http://www.w3.org/1999/xlink" x="0px" y="0px"
	 viewBox="0 0 254.6 254.5" style="enable-background:new 0 0 254.6 254.5;" xml:space="preserve">
<style type="text/css">
	.st0{fill:#525252;}
	.st1{fill:#F9F9F9;}
</style>
<path class="st0" d="M233.1,194.4H19.5c-6.6,0-12-5.4-12-12V20.6c0-6.6,5.4-12,12-12H233c6.6,0,12,5.4,12,12v161.8
	c0.1,6.6-5.2,11.9-11.8,12C233.2,194.4,233.1,194.4,233.1,194.4z"/>
<path class="st0" d="M210.5,110.9l-76.4,132.4c-2.5,4.3-8,5.8-12.3,3.3c-1.4-0.8-2.5-1.9-3.3-3.3L42.1,110.9
	c-2.5-4.3-1-9.8,3.3-12.3c1.4-0.8,2.9-1.2,4.5-1.2h152.8c5,0,9,4,9,9C211.7,108,211.3,109.5,210.5,110.9z"/>
<path class="st0" d="M227,0H27.4C12.3,0,0,12.3,0,27.4v146.3c0,15.1,12.3,27.4,27.4,27.4h63.3l21,41.9c3.7,7.3,9.3,11.5,15.6,11.5
	s11.9-4.2,15.6-11.5l21-41.9h63.3c15.1,0,27.4-12.3,27.4-27.4V27.5C254.5,12.3,242.2,0.1,227,0z M239.5,173.7
	c0,6.9-5.5,12.5-12.4,12.5c0,0,0,0-0.1,0h-67.9c-2.8,0-5.4,1.6-6.7,4.1l-23,46c-0.5,1.2-1.3,2.3-2.3,3.1c-1-0.9-1.8-1.9-2.3-3.1
	l-23-46c-1.3-2.5-3.9-4.1-6.7-4.1H27.2c-6.9,0-12.5-5.6-12.5-12.5V27.5c0-6.9,5.6-12.5,12.5-12.5h199.7c6.9,0,12.5,5.6,12.5,12.5
	L239.5,173.7z"/>
<circle class="st1" cx="60.7" cy="101.5" r="18"/>
<circle class="st1" cx="194.2" cy="101.5" r="18"/>
<circle class="st1" cx="126.3" cy="101.5" r="18"/>
</svg>
