<svg id="Capa_1" data-name="Capa 1" xmlns="http://www.w3.org/2000/svg" viewBox="0 0 254.6 254.5"><defs><style>.cls-1{fill:#525252;}.cls-2{fill:#f9f9f9;}</style></defs><path class="cls-1" d="M233.1,194.4H19.5a12,12,0,0,1-12-12V20.6a12,12,0,0,1,12-12H233a12,12,0,0,1,12,12V182.4a11.89,11.89,0,0,1-11.78,12Z"/><path class="cls-1" d="M210.5,110.9,134.1,243.3a9,9,0,0,1-15.6,0L42.1,110.9a9,9,0,0,1,7.8-13.5H202.7a9,9,0,0,1,7.8,13.5Z"/><path class="cls-1" d="M227,0H27.4A27.44,27.44,0,0,0,0,27.4V173.7a27.44,27.44,0,0,0,27.4,27.4H90.7l21,41.9c3.7,7.3,9.3,11.5,15.6,11.5s11.9-4.2,15.6-11.5l21-41.9h63.3a27.44,27.44,0,0,0,27.4-27.4V27.5A27.76,27.76,0,0,0,227,0Zm12.5,173.7a12.5,12.5,0,0,1-12.45,12.55h-68a7.62,7.62,0,0,0-6.7,4.1l-23,46a7.37,7.37,0,0,1-2.3,3.1,9.37,9.37,0,0,1-2.3-3.1l-23-46a7.49,7.49,0,0,0-6.7-4.1H27.2a12.5,12.5,0,0,1-12.5-12.5V27.5A12.5,12.5,0,0,1,27.2,15H226.9a12.5,12.5,0,0,1,12.5,12.5Z"/><circle class="cls-2" cx="60.7" cy="101.5" r="18"/><circle class="cls-2" cx="194.2" cy="101.5" r="18"/><circle class="cls-2" cx="126.3" cy="101.5" r="18"/></svg>