<?xml version="1.0" encoding="utf-8"?>
<!-- Generator: Adobe Illustrator 25.2.3, SVG Export Plug-In . SVG Version: 6.00 Build 0)  -->
<svg version="1.1" id="Capa_1" xmlns="http://www.w3.org/2000/svg" xmlns:xlink="http://www.w3.org/1999/xlink" x="0px" y="0px"
	 viewBox="0 0 512 512" style="enable-background:new 0 0 512 512;" xml:space="preserve">
<style type="text/css">
	.st0{fill:#525252;}
	.st1{fill:#B1C447;}
</style>
<circle class="st0" cx="256.6" cy="256" r="256"/>
<path class="st1" d="M362.4,343.6H148.8c-6.6,0-12-5.4-12-12V169.8c0-6.6,5.4-12,12-12h213.5c6.6,0,12,5.4,12,12v161.8
	C374.4,338.2,369,343.6,362.4,343.6z"/>
<path class="st1" d="M339.8,260.1l-76.4,132.4c-3.5,6-12.1,6-15.6,0l-76.4-132.4c-3.5-6,0.9-13.5,7.8-13.5H332
	C338.9,246.6,343.3,254.1,339.8,260.1z"/>
<path class="st1" d="M356.3,149.2H156.7c-15.1,0-27.4,12.3-27.4,27.4v146.3c0,15.1,12.3,27.4,27.4,27.4H220l21,41.9
	c3.7,7.3,9.3,11.5,15.6,11.5c6.3,0,11.9-4.2,15.6-11.5l21-41.9h63.3c15.1,0,27.4-12.3,27.4-27.4V176.7
	C383.8,161.6,371.4,149.2,356.3,149.2z M368.8,322.9c0,6.9-5.6,12.5-12.5,12.5h-67.9c-2.8,0-5.4,1.6-6.7,4.1l-23,46
	c-0.9,1.9-1.8,2.8-2.3,3.1c-0.5-0.3-1.3-1.3-2.3-3.1l-23-46c-1.3-2.5-3.8-4.1-6.7-4.1h-67.9c-6.9,0-12.5-5.6-12.5-12.5V176.7
	c0-6.9,5.6-12.5,12.5-12.5h199.7c6.9,0,12.5,5.6,12.5,12.5L368.8,322.9L368.8,322.9z"/>
<circle class="st0" cx="190" cy="250.7" r="18"/>
<circle class="st0" cx="323.5" cy="250.7" r="18"/>
<circle class="st0" cx="255.6" cy="250.7" r="18"/>
</svg>
