<svg id="Capa_1" data-name="Capa 1" xmlns="http://www.w3.org/2000/svg" viewBox="0 0 254.6 254.5"><defs><style>.cls-1{fill:#f9f9f9;}.cls-2{fill:#525252;}</style></defs><path class="cls-1" d="M328.8,290.15H115.2a12,12,0,0,1-12-12V116.35a12,12,0,0,1,12-12H328.7a12,12,0,0,1,12,12v161.8A11.89,11.89,0,0,1,328.8,290.15Z" transform="translate(-95.7 -95.75)"/><path class="cls-1" d="M306.2,206.65l-76.4,132.4a9,9,0,0,1-15.6,0l-76.4-132.4a9,9,0,0,1,7.8-13.5H298.4A9,9,0,0,1,306.2,206.65Z" transform="translate(-95.7 -95.75)"/><path class="cls-2" d="M322.7,95.75H123.1a27.44,27.44,0,0,0-27.4,27.4v146.3a27.44,27.44,0,0,0,27.4,27.4h63.3l21,41.9c3.7,7.3,9.3,11.5,15.6,11.5s11.9-4.2,15.6-11.5l21-41.9h63.3a27.44,27.44,0,0,0,27.4-27.4V123.25A27.76,27.76,0,0,0,322.7,95.75Zm12.5,173.7A12.5,12.5,0,0,1,322.7,282H254.8a7.6,7.6,0,0,0-6.7,4.1l-23,46a7.31,7.31,0,0,1-2.3,3.1,9.34,9.34,0,0,1-2.3-3.1l-23-46a7.49,7.49,0,0,0-6.7-4.1H122.9a12.5,12.5,0,0,1-12.5-12.5V123.25a12.5,12.5,0,0,1,12.5-12.5H322.6a12.5,12.5,0,0,1,12.5,12.5l.1,146.2Z" transform="translate(-95.7 -95.75)"/><circle class="cls-2" cx="60.7" cy="101.5" r="18"/><circle class="cls-2" cx="194.2" cy="101.5" r="18"/><circle class="cls-2" cx="126.3" cy="101.5" r="18"/></svg>