<svg id="Capa_1" data-name="Capa 1" xmlns="http://www.w3.org/2000/svg" viewBox="0 0 448 512"><defs><style>.cls-1{fill:#525252;}</style></defs><g id="_1_5" data-name="1,5"><path class="cls-1" d="M436.9,102.7a16,16,0,0,1-10.8-4.2C379.1,55.6,318.6,32,256,32S132.9,55.6,85.9,98.6A16,16,0,0,1,64.3,75C117.3,26.6,185.4,0,256,0S394.7,26.6,447.7,74.9a16,16,0,0,1,1,22.6,15.57,15.57,0,0,1-11.8,5.2Z" transform="translate(-32.01)"/><path class="cls-1" d="M464,207.3a16.09,16.09,0,0,1-13.3-7.1C406.3,134.1,333.5,94.6,256,94.6S105.7,134.1,61.3,200.2a16,16,0,1,1-26.6-17.8C85.1,107.4,167.8,62.6,256,62.6s170.9,44.8,221.3,119.8A16,16,0,0,1,464,207.3Z" transform="translate(-32.01)"/><path class="cls-1" d="M205.5,512a16.39,16.39,0,0,1-11.4-4.7c-3.5-3.5-85.5-87.2-85.5-167.8,0-83.6,66.1-151.7,147.4-151.7s147.4,68,147.4,151.7a16,16,0,0,1-32,0c0-66-51.8-119.7-115.4-119.7S140.6,273.5,140.6,339.5c0,67.6,75.5,144.5,76.2,145.3A15.95,15.95,0,0,1,205.5,512Z" transform="translate(-32.01)"/><path class="cls-1" d="M306.5,512c-38.5,0-127.7-73.2-136.3-154.8-3.1-28.8,6.1-58.3,24.5-78.9,16-17.9,37.6-27.8,60.8-27.9h.4a85.15,85.15,0,0,1,60.4,25.1,89.49,89.49,0,0,1,26.4,64v10.4c0,25.7,20,46.6,44.6,46.6S432,375.6,432,349.9v-3.6c0-99.6-72.2-182.5-164.3-188.7-48-3.3-94.1,13.3-129.7,46.6C101.1,238.7,80,288,80,339.5c0,42.3,14.3,83.6,40.4,116.1a16,16,0,0,1-25,20A218.39,218.39,0,0,1,48,339.5c0-60.3,24.9-118.1,68.2-158.7,42.1-39.4,96.7-59,153.7-55.1C378.7,132.9,464,229.8,464,346.3v3.6c0,43.3-34.4,78.6-76.7,78.6s-76.6-35.3-76.6-78.6V339.5a58,58,0,0,0-16.9-41.3A53.3,53.3,0,0,0,256,282.4h-.3c-18,.1-30.2,9.5-37.2,17.3-12.5,13.9-18.7,34.2-16.6,54.2C209,420.4,285.4,480,306.4,480a16,16,0,0,1,16,16,15.77,15.77,0,0,1-15.9,16Z" transform="translate(-32.01)"/><path class="cls-1" d="M365.9,480.7c-57.3,0-127.2-70-127.2-151.7a16,16,0,0,1,32,0c0,63.3,53.2,119.7,95.2,119.7a16,16,0,0,1,0,32Z" transform="translate(-32.01)"/></g></svg>