<?xml version="1.0" encoding="utf-8"?>
<!-- Generator: Adobe Illustrator 25.3.1, SVG Export Plug-In . SVG Version: 6.00 Build 0)  -->
<svg version="1.1" id="Capa_1" xmlns="http://www.w3.org/2000/svg" xmlns:xlink="http://www.w3.org/1999/xlink" x="0px" y="0px"
	 viewBox="0 0 841.89 356.28" style="enable-background:new 0 0 841.89 356.28;" xml:space="preserve">
<style type="text/css">
	.st0{fill:#1D1D1B;}
	.st1{fill:#B1C447;}
</style>
<g>
	<polygon class="st0" points="183.45,79 183.45,78.74 122.58,171.85 118.51,171.85 57.19,78.74 57.19,219.98 44.95,219.98 
		44.95,61.03 59.47,61.03 120.32,153.67 180.5,61.03 195.18,61.03 	"/>
	<rect x="251.1" y="61.03" class="st0" width="12.04" height="158.95"/>
	<polygon class="st0" points="323.99,61.03 430.94,192.5 430.94,61.03 442.97,61.03 442.97,219.98 438.2,219.98 331.02,88.73 
		331.02,219.98 318.76,219.98 318.76,61.03 	"/>
	<polygon class="st0" points="544.01,72.15 486.56,72.15 486.56,61.25 613.72,61.25 613.72,72.15 556.27,72.15 556.27,219.97 
		544.01,219.97 	"/>
	<path class="st0" d="M783.78,219.97l-17.48-39.06h-94.92l-17.26,39.06h-13.16l71.3-158.95h13.4l71.3,158.95H783.78z M761.53,169.56
		l-42.69-96.73l-42.69,96.73H761.53z"/>
	<polygon class="st1" points="195.47,91 195.47,219.98 183.45,219.98 183.45,109.4 	"/>
	<polygon class="st0" points="132.8,312.26 130.88,312.26 130.88,295.09 106.94,295.09 106.94,312.26 105.05,312.26 105.05,275.93 
		106.94,275.93 106.94,293.16 130.88,293.16 130.88,275.93 132.8,275.93 	"/>
	<path class="st0" d="M133.72,313.17h-3.75V296h-22.11v17.17h-3.72v-38.15h3.72v17.23h22.11v-17.23h3.75V313.17z M131.79,311.34h0.1
		v-34.5h-0.1v17.23h-25.76l-0.07-17.23v34.5h0.07v-17.17h25.76V311.34z"/>
	<path class="st0" d="M174.77,312.25h-2.09l-4.81-11.87h-16.38l-5.14,11.87h-2.09l15.75-36.38L174.77,312.25z M167.1,298.49
		l-7.14-17.67l-7.64,17.67H167.1z"/>
	<path class="st0" d="M176.13,313.16h-4.06l-4.81-11.87H152.1l-5.14,11.87h-4.07l17.16-39.65L176.13,313.16z M173.3,311.34h0.12
		l-13.43-33.1l-14.32,33.1h0.1l5.13-11.87h17.6L173.3,311.34z M168.46,299.4h-17.52l9.06-20.95L168.46,299.4z M153.71,297.58h12.04
		l-5.82-14.39L153.71,297.58z"/>
	<path class="st0" d="M202.7,312.78c-3.43,0-6.56-0.83-9.38-2.51c-2.84-1.67-5.09-3.93-6.78-6.76c-1.69-2.83-2.53-5.97-2.53-9.41
		c0-3.43,0.85-6.55,2.53-9.38c1.69-2.83,3.94-5.09,6.78-6.78c2.82-1.68,5.96-2.53,9.38-2.53c4.47,0,8.52,1.5,12.14,4.51l-1.48,1.26
		c-3.21-2.56-6.76-3.85-10.66-3.85c-3.08,0-5.89,0.76-8.42,2.27c-2.54,1.51-4.56,3.54-6.07,6.07c-1.51,2.54-2.27,5.34-2.27,8.42
		c0,3.1,0.76,5.91,2.27,8.45c1.51,2.54,3.54,4.56,6.07,6.07c2.54,1.51,5.34,2.27,8.42,2.27c4.35,0,8.22-1.55,11.59-4.64l1.45,1.24
		C211.98,311.01,207.63,312.78,202.7,312.78"/>
	<path class="st0" d="M202.7,313.69c-3.57,0-6.89-0.88-9.85-2.64c-2.95-1.75-5.34-4.13-7.09-7.08c-1.77-2.96-2.66-6.28-2.66-9.88
		c0-3.58,0.9-6.89,2.66-9.85c1.75-2.96,4.14-5.34,7.08-7.1c2.96-1.76,6.28-2.65,9.85-2.65c4.66,0,8.95,1.59,12.73,4.71l0.83,0.69
		l-2.88,2.46l-0.59-0.47c-3.03-2.42-6.42-3.65-10.09-3.65c-2.9,0-5.58,0.72-7.95,2.13c-2.4,1.43-4.33,3.37-5.76,5.76
		c-1.42,2.38-2.14,5.06-2.14,7.96c0,2.91,0.72,5.6,2.14,7.98c1.42,2.4,3.36,4.33,5.76,5.76c2.38,1.41,5.06,2.14,7.95,2.14
		c4.1,0,7.79-1.49,10.98-4.4l0.6-0.55l2.85,2.42l-0.74,0.7C212.45,311.82,207.85,313.69,202.7,313.69 M202.7,276.32
		c-3.24,0-6.24,0.81-8.92,2.4c-2.69,1.6-4.86,3.76-6.45,6.45c-1.59,2.67-2.4,5.67-2.4,8.91c0,3.26,0.81,6.27,2.4,8.94
		c1.6,2.68,3.77,4.85,6.45,6.44c2.67,1.58,5.68,2.39,8.92,2.39c4.33,0,8.25-1.47,11.66-4.37l-0.06-0.05
		c-3.39,2.88-7.29,4.35-11.61,4.35c-3.23,0-6.22-0.81-8.89-2.4c-2.66-1.58-4.81-3.72-6.39-6.39c-1.59-2.66-2.39-5.66-2.39-8.91
		c0-3.23,0.8-6.22,2.39-8.89c1.58-2.66,3.73-4.81,6.39-6.39c2.66-1.59,5.65-2.39,8.89-2.39c3.85,0,7.43,1.2,10.63,3.58l0.07-0.06
		C210.18,277.54,206.58,276.32,202.7,276.32"/>
	<polygon class="st0" points="254.04,312.26 251.73,312.26 237.25,290.47 231.54,295.41 231.54,312.26 229.64,312.26 229.64,275.93 
		231.54,275.93 231.54,292.8 251.1,275.93 254.01,275.93 238.71,289.21 	"/>
	<path class="st0" d="M255.75,313.17h-4.5l-14.18-21.33l-4.61,4v17.34h-3.72v-38.15h3.72v15.79l18.31-15.79h5.7l-16.55,14.35
		L255.75,313.17z M252.23,311.34h0.12l-14.84-22.3l14.06-12.19h-0.13l-20.81,17.95l-0.08-17.95v34.5h0.08V295l6.81-5.89
		L252.23,311.34z"/>
	<path class="st0" d="M276.2,312.45c-2.3,0-4.52-0.54-6.65-1.61c-2.12-1.07-3.71-2.73-4.75-4.98l1.76-0.74
		c1.08,2.29,2.79,3.84,5.11,4.67c1.5,0.53,3.02,0.8,4.53,0.8c2.82,0,5.23-0.78,7.23-2.37c1.39-1.1,2.12-2.63,2.2-4.59
		c-0.06-2.35-1.73-4.48-5.03-6.41c-1.38-0.78-2.74-1.5-4.09-2.14c-4.11-1.92-7.18-4.1-9.23-6.54c-1.18-1.39-1.76-2.81-1.76-4.26
		c0-2,0.68-3.74,2.05-5.24c1.36-1.5,3.29-2.54,5.78-3.11c1.04-0.23,2.1-0.36,3.17-0.36c0.78,0,1.84,0.11,3.17,0.32
		c1.33,0.21,2.78,0.83,4.34,1.88c1.56,1.04,2.77,2.5,3.61,4.37l-1.76,0.72c-1.09-2.31-2.8-3.87-5.11-4.68
		c-1.43-0.5-2.86-0.75-4.29-0.75c-2.86,0-5.23,0.82-7.14,2.45c-1.27,1.08-1.9,2.58-1.9,4.51c0.13,1.32,0.8,2.58,2.01,3.77
		c1.21,1.2,2.55,2.25,4.04,3.16c1.48,0.91,2.78,1.6,3.87,2.08c1.45,0.67,2.93,1.47,4.47,2.39c1.53,0.91,2.85,2.02,3.96,3.3
		c1.12,1.28,1.71,2.79,1.76,4.53c-0.04,2.12-0.81,3.95-2.3,5.47c-1.51,1.52-3.55,2.54-6.13,3.07
		C278.16,312.36,277.19,312.45,276.2,312.45"/>
	<path class="st0" d="M276.2,313.36c-2.44,0-4.81-0.57-7.06-1.7c-2.3-1.16-4.05-2.98-5.17-5.42l-0.4-0.85l3.44-1.45l0.37,0.79
		c0.98,2.08,2.48,3.45,4.59,4.21c1.39,0.49,2.82,0.74,4.23,0.74c2.6,0,4.84-0.72,6.66-2.17c1.18-0.93,1.79-2.22,1.85-3.91
		c-0.05-1.94-1.59-3.84-4.58-5.58c-1.34-0.77-2.7-1.48-4.03-2.11c-4.19-1.96-7.41-4.24-9.54-6.78c-1.31-1.55-1.97-3.18-1.97-4.85
		c0-2.22,0.77-4.19,2.28-5.86c1.49-1.64,3.59-2.77,6.26-3.38c1.11-0.25,2.24-0.38,3.37-0.38c0.84,0,1.92,0.11,3.31,0.33
		c1.45,0.23,3.04,0.91,4.71,2.02c1.7,1.14,3.03,2.74,3.93,4.76l0.39,0.86l-3.44,1.39l-0.36-0.78c-1-2.1-2.5-3.47-4.59-4.2
		c-1.33-0.46-2.66-0.69-3.98-0.69c-2.66,0-4.8,0.73-6.55,2.23c-1.06,0.91-1.58,2.16-1.58,3.81c0.11,1.01,0.69,2.09,1.74,3.13
		c1.15,1.14,2.46,2.16,3.87,3.02c1.43,0.88,2.7,1.56,3.75,2.02c1.49,0.7,3.01,1.51,4.58,2.44c1.6,0.97,3.01,2.14,4.18,3.49
		c1.25,1.44,1.92,3.16,1.98,5.11c-0.04,2.39-0.9,4.44-2.57,6.13c-1.62,1.64-3.84,2.76-6.59,3.33
		C278.28,313.26,277.24,313.36,276.2,313.36 M271.35,310.63c2.45,0.93,5.13,1.12,7.59,0.64c2.38-0.49,4.28-1.44,5.65-2.82
		c1.34-1.36,2.01-2.95,2.04-4.84c-0.05-1.49-0.55-2.79-1.54-3.92c-1.04-1.2-2.31-2.25-3.75-3.12c-1.51-0.9-2.98-1.69-4.38-2.35
		c-1.12-0.48-2.46-1.19-3.97-2.12c-1.54-0.94-2.95-2.04-4.21-3.29c-1.36-1.35-2.12-2.81-2.27-4.34c-0.01-2.28,0.74-4.03,2.21-5.29
		c2.06-1.77,4.67-2.67,7.74-2.67c1.53,0,3.07,0.27,4.59,0.8c2.27,0.79,4.03,2.27,5.23,4.38l0.08-0.03c-0.73-1.3-1.69-2.36-2.86-3.14
		c-1.45-0.97-2.79-1.55-3.98-1.74c-1.27-0.2-2.29-0.3-3.02-0.3c-0.99,0-1.99,0.11-2.97,0.33c-2.29,0.53-4.08,1.48-5.31,2.84
		c-1.22,1.34-1.81,2.85-1.81,4.63c0,1.22,0.52,2.45,1.55,3.67c1.96,2.33,4.96,4.44,8.92,6.3c1.38,0.66,2.77,1.38,4.16,2.18
		c3.58,2.09,5.42,4.49,5.49,7.17c-0.09,2.28-0.95,4.06-2.55,5.33c-2.15,1.69-4.77,2.55-7.79,2.55c-1.61,0-3.24-0.28-4.84-0.85
		C271.36,310.64,271.35,310.64,271.35,310.63 M266.06,306.31c0.92,1.61,2.17,2.82,3.8,3.66c-1.56-0.85-2.8-2.09-3.72-3.69
		L266.06,306.31z"/>
	<polygon class="st0" points="325.49,312.26 323.57,312.26 323.57,275.93 345.28,275.93 345.28,277.85 325.49,277.85 325.49,293.11 
		342.37,293.11 342.37,295 325.49,295 	"/>
	<path class="st0" d="M326.41,313.17h-3.75v-38.15h23.54v3.75h-19.78v13.43h16.87v3.72h-16.87V313.17z M324.48,311.34h0.1v-17.25
		l16.87-0.07h-16.87v-17.08h19.78v-0.09h-19.89V311.34z"/>
	<path class="st0" d="M372.6,312.7c-3.26,0-6.23-0.85-8.93-2.53c-2.7-1.69-4.84-3.94-6.44-6.78c-1.6-2.83-2.41-5.95-2.41-9.38
		c0-3.44,0.81-6.58,2.41-9.4c1.6-2.82,3.75-5.07,6.44-6.76c2.69-1.69,5.66-2.53,8.93-2.53c3.28,0,6.27,0.85,8.96,2.53
		c2.69,1.69,4.84,3.94,6.44,6.76c1.6,2.82,2.41,5.96,2.41,9.4c0,3.43-0.81,6.55-2.41,9.38c-1.6,2.84-3.75,5.09-6.44,6.78
		C378.86,311.85,375.88,312.7,372.6,312.7 M372.6,310.77c2.93,0,5.6-0.76,8-2.27c2.4-1.51,4.32-3.54,5.74-6.08
		c1.43-2.54,2.14-5.34,2.14-8.42c0-3.08-0.71-5.89-2.14-8.43c-1.42-2.54-3.34-4.56-5.74-6.07c-2.4-1.51-5.06-2.27-8-2.27
		c-2.91,0-5.57,0.75-7.96,2.27c-2.4,1.51-4.32,3.53-5.75,6.07c-1.44,2.54-2.16,5.35-2.16,8.43c0,3.07,0.72,5.88,2.16,8.42
		c1.43,2.54,3.35,4.56,5.75,6.08C367.03,310.02,369.69,310.77,372.6,310.77"/>
	<path class="st0" d="M372.6,313.61c-3.42,0-6.58-0.9-9.41-2.66c-2.81-1.76-5.08-4.15-6.75-7.1c-1.67-2.96-2.53-6.26-2.53-9.83
		c0-3.59,0.85-6.9,2.53-9.85c1.67-2.94,3.94-5.32,6.75-7.08c2.83-1.77,6-2.67,9.41-2.67c3.44,0,6.62,0.9,9.44,2.67
		c2.81,1.75,5.08,4.14,6.75,7.08c1.67,2.95,2.53,6.26,2.53,9.85c0,3.57-0.85,6.87-2.53,9.83c-1.67,2.96-3.94,5.34-6.75,7.1
		C379.21,312.71,376.04,313.61,372.6,313.61 M372.6,276.23c-3.07,0-5.91,0.81-8.44,2.39c-2.55,1.6-4.62,3.77-6.14,6.44
		c-1.51,2.66-2.29,5.68-2.29,8.95c0,3.25,0.77,6.26,2.29,8.93c1.52,2.69,3.59,4.85,6.14,6.45c2.53,1.59,5.37,2.39,8.44,2.39
		c3.09,0,5.94-0.81,8.48-2.39c2.55-1.6,4.61-3.76,6.13-6.45c1.51-2.67,2.29-5.68,2.29-8.93c0-3.27-0.77-6.28-2.29-8.95
		c-1.52-2.67-3.59-4.84-6.13-6.44C378.54,277.04,375.69,276.23,372.6,276.23 M372.6,311.69c-3.07,0-5.91-0.81-8.45-2.4
		c-2.52-1.59-4.56-3.74-6.07-6.39c-1.5-2.67-2.27-5.65-2.27-8.88c0-3.23,0.77-6.21,2.27-8.87c1.51-2.66,3.55-4.81,6.07-6.4
		c2.54-1.6,5.38-2.4,8.45-2.4c3.09,0,5.95,0.81,8.48,2.4c2.52,1.59,4.55,3.74,6.06,6.4c1.5,2.66,2.25,5.64,2.25,8.87
		c0,3.22-0.76,6.21-2.25,8.87c-1.5,2.66-3.54,4.81-6.06,6.4C378.54,310.88,375.69,311.69,372.6,311.69 M372.6,278.16
		c-2.72,0-5.24,0.72-7.48,2.13c-2.26,1.43-4.09,3.35-5.44,5.75c-1.35,2.38-2.04,5.07-2.04,7.97c0,2.91,0.69,5.59,2.04,7.97
		c1.35,2.39,3.18,4.33,5.44,5.75c2.24,1.4,4.76,2.12,7.48,2.12c2.75,0,5.27-0.72,7.51-2.12c2.26-1.43,4.09-3.36,5.44-5.75
		c1.34-2.39,2.02-5.07,2.02-7.97c0-2.91-0.68-5.59-2.02-7.97c-1.35-2.39-3.18-4.32-5.44-5.75
		C377.87,278.88,375.34,278.16,372.6,278.16"/>
	<path class="st0" d="M426.99,312.26h-2.28l-11.02-16.78h-9.39v16.78h-1.9v-36.33h13.47c3.39,0,6.16,0.96,8.32,2.86
		c1.93,1.81,2.91,4.31,2.95,7.48c0,2.56-0.82,4.63-2.45,6.21c-0.98,0.92-2.07,1.59-3.24,2.01c-1.85,0.66-3.67,0.99-5.47,0.99
		L426.99,312.26z M415.78,293.54c0.2,0,0.69-0.02,1.46-0.07c0.77-0.04,1.74-0.24,2.92-0.57c1.18-0.34,2.25-0.94,3.2-1.8
		c1.23-1.19,1.85-2.77,1.85-4.76c0-2.63-0.77-4.68-2.31-6.12c-1.8-1.58-4.12-2.37-6.98-2.37h-11.62v15.69H415.78z"/>
	<path class="st0" d="M428.68,313.17h-4.47l-11.02-16.78h-7.99v16.78h-3.72v-38.15h14.38c3.6,0,6.6,1.04,8.93,3.09
		c2.13,2,3.21,4.74,3.25,8.15c0,2.82-0.92,5.13-2.72,6.87c-1.09,1.01-2.28,1.75-3.57,2.21c-1.39,0.5-2.77,0.82-4.14,0.96
		L428.68,313.17z M425.2,311.34h0.1l-11.01-16.78h1.69c1.69,0,3.42-0.32,5.16-0.94c1.05-0.38,2.03-0.99,2.93-1.82
		c1.45-1.39,2.16-3.21,2.16-5.54c-0.03-2.93-0.9-5.16-2.66-6.81c-1.95-1.72-4.55-2.6-7.69-2.6h-12.56v34.5h0.07v-16.78h10.8
		L425.2,311.34z M415.77,294.46h-12.4v-17.51h12.53c3.07,0,5.62,0.87,7.58,2.59c1.75,1.65,2.62,3.93,2.62,6.81
		c0,2.23-0.71,4.05-2.12,5.41c-1.07,0.98-2.27,1.65-3.58,2.02c-1.26,0.36-2.28,0.56-3.12,0.61
		C416.49,294.43,415.98,294.46,415.77,294.46 M405.2,292.63h10.57c0.19,0,0.66-0.02,1.4-0.07c0.7-0.04,1.62-0.23,2.73-0.54
		c1.04-0.3,1.99-0.84,2.84-1.6c1.03-1.01,1.54-2.34,1.54-4.08c0-2.39-0.66-4.18-2.02-5.46c-1.61-1.42-3.7-2.12-6.36-2.12H405.2
		V292.63z"/>
	<path class="st0" d="M479.91,312.26H464v-36.33h12.83c1.54,0,3.19,0.41,4.97,1.24c3.26,1.46,4.95,4.39,5.08,8.79
		c-0.07,3.64-1.5,6.24-4.28,7.78c0.77,0.18,1.58,0.45,2.42,0.8c3.59,1.41,5.45,4.28,5.57,8.6c-0.07,2.37-0.72,4.21-1.97,5.54
		c-1.25,1.33-2.69,2.26-4.34,2.79C482.63,311.99,481.17,312.26,479.91,312.26 M465.92,293.38l10.66-0.03c1.16,0,2.31-0.18,3.48-0.53
		c1.16-0.35,2.25-1.05,3.28-2.12c1.02-1.06,1.57-2.65,1.62-4.75c0-3.39-1.34-5.76-4.02-7.12c-1.17-0.55-2.34-0.88-3.51-0.99
		c-0.26,0-0.44-0.01-0.53-0.03h-10.99V293.38z M479.85,310.36c1.33,0,2.84-0.32,4.5-0.96c2.8-1.08,4.24-3.17,4.32-6.27
		c-0.08-3.39-1.54-5.67-4.4-6.84c-1.72-0.7-3.27-1.04-4.64-1.04l-13.71,0.03v15.08H479.85z"/>
	<path class="st0" d="M479.91,313.16h-16.82v-38.15h13.75c1.66,0,3.47,0.45,5.35,1.32c3.59,1.61,5.48,4.84,5.61,9.6
		c-0.07,3.24-1.12,5.74-3.13,7.48c0.23,0.09,0.47,0.18,0.7,0.28c3.93,1.54,6,4.72,6.14,9.42c-0.08,2.64-0.83,4.7-2.23,6.19
		c-1.35,1.44-2.93,2.46-4.73,3.03C482.83,312.89,481.26,313.16,479.91,313.16 M464.91,311.34h15c1.17,0,2.54-0.25,4.09-0.75
		c1.03-0.34,1.98-0.85,2.85-1.53c-0.62,0.48-1.34,0.87-2.16,1.19c-1.76,0.67-3.39,1.02-4.84,1.02h-14.84v-16.91l14.62-0.03
		c1.49,0,3.17,0.38,4.99,1.11c3.21,1.32,4.89,3.9,4.96,7.67c-0.06,2.34-0.8,4.18-2.21,5.5c0.2-0.18,0.39-0.37,0.57-0.57
		c1.09-1.16,1.67-2.82,1.74-4.94c-0.12-3.91-1.75-6.45-5-7.72c-0.81-0.34-1.58-0.59-2.29-0.76l-2.29-0.55l2.06-1.14
		c2.5-1.38,3.75-3.67,3.82-7c-0.12-4.01-1.61-6.62-4.54-7.94c-1.66-0.77-3.21-1.16-4.6-1.16h-11.93V311.34z M466.83,309.45h13.02
		c1.22,0,2.63-0.3,4.18-0.9c2.45-0.94,3.66-2.72,3.73-5.44c-0.07-2.98-1.32-4.94-3.83-5.97c-1.6-0.65-3.05-0.98-4.3-0.98l-12.8,0.03
		V309.45z M465.01,294.29v-17.38l12.09,0.02c0.06,0.01,0.18,0.01,0.34,0.01c1.35,0.12,2.64,0.48,3.9,1.07
		c3.02,1.53,4.54,4.2,4.54,7.95c-0.06,2.35-0.69,4.16-1.88,5.38c-1.13,1.17-2.37,1.97-3.68,2.36c-1.24,0.37-2.5,0.56-3.73,0.56
		L465.01,294.29z M466.83,278.74v13.72l9.75-0.02c1.06,0,2.14-0.17,3.22-0.48c1.01-0.3,1.98-0.93,2.89-1.88
		c0.86-0.88,1.32-2.28,1.37-4.14c0-3.02-1.15-5.08-3.51-6.28c-1.04-0.49-2.12-0.8-3.19-0.9c-0.2,0-0.36-0.01-0.51-0.02H466.83z"/>
	<path class="st0" d="M515.81,312.58c-3.98,0-7.29-1.3-9.95-3.93c-2.49-2.56-3.74-5.47-3.74-8.74v-23.99h1.92v23.99
		c0,2.75,1.06,5.2,3.16,7.37c2.37,2.25,5.22,3.38,8.58,3.38c3.37-0.1,6.3-1.41,8.79-3.93c1.99-2.12,3-4.37,3-6.73v-24.08h1.92v23.99
		c0,2.9-1.18,5.62-3.55,8.17C523.09,310.95,519.71,312.46,515.81,312.58"/>
	<path class="st0" d="M515.82,313.5L515.82,313.5c-4.22,0-7.78-1.41-10.59-4.19c-2.67-2.74-4.01-5.89-4.01-9.39v-24.9h3.75v24.9
		c0,2.53,0.95,4.73,2.9,6.73c2.19,2.08,4.78,3.1,7.92,3.1c3.12-0.1,5.8-1.3,8.14-3.66c1.83-1.95,2.73-3.95,2.73-6.09v-24.99h3.75
		v24.9c0,3.12-1.27,6.07-3.79,8.79c-3.03,3.05-6.65,4.66-10.78,4.8H515.82z M503.04,276.84v23.07c0,3.05,1.14,5.69,3.48,8.11
		c2.48,2.45,5.52,3.65,9.28,3.65c3.64-0.12,6.83-1.55,9.5-4.24c2.17-2.34,3.28-4.87,3.28-7.52v-23.07h-0.1V300
		c0,2.59-1.09,5.06-3.24,7.36c-2.67,2.69-5.84,4.11-9.43,4.22c-3.61,0-6.7-1.22-9.23-3.63c-2.29-2.35-3.44-5.04-3.44-8.02v-23.07
		H503.04z"/>
	<path class="st0" d="M554.48,312.45c-2.3,0-4.52-0.54-6.65-1.61c-2.13-1.07-3.71-2.73-4.75-4.98l1.76-0.74
		c1.08,2.29,2.79,3.84,5.11,4.67c1.5,0.53,3.02,0.8,4.53,0.8c2.82,0,5.23-0.78,7.23-2.37c1.39-1.1,2.12-2.63,2.2-4.59
		c-0.06-2.35-1.73-4.48-5.03-6.41c-1.38-0.78-2.74-1.5-4.1-2.14c-4.1-1.92-7.18-4.1-9.23-6.54c-1.18-1.39-1.76-2.81-1.76-4.26
		c0-2,0.68-3.74,2.05-5.24c1.36-1.5,3.29-2.54,5.78-3.11c1.04-0.23,2.09-0.36,3.16-0.36c0.78,0,1.85,0.11,3.17,0.32
		c1.33,0.21,2.78,0.83,4.34,1.88c1.56,1.04,2.77,2.5,3.61,4.37l-1.76,0.72c-1.09-2.31-2.8-3.87-5.11-4.68
		c-1.43-0.5-2.85-0.75-4.28-0.75c-2.86,0-5.24,0.82-7.15,2.45c-1.27,1.08-1.9,2.58-1.9,4.51c0.13,1.32,0.8,2.58,2.01,3.77
		c1.21,1.2,2.55,2.25,4.04,3.16c1.48,0.91,2.78,1.6,3.87,2.08c1.45,0.67,2.93,1.47,4.47,2.39c1.53,0.91,2.85,2.02,3.96,3.3
		c1.12,1.28,1.71,2.79,1.76,4.53c-0.04,2.12-0.81,3.95-2.31,5.47c-1.5,1.52-3.54,2.54-6.13,3.07
		C556.44,312.36,555.47,312.45,554.48,312.45"/>
	<path class="st0" d="M554.48,313.36c-2.44,0-4.81-0.57-7.06-1.7c-2.3-1.16-4.05-2.98-5.17-5.42l-0.4-0.85l3.44-1.45l0.37,0.79
		c0.98,2.08,2.48,3.45,4.59,4.21c1.39,0.49,2.82,0.74,4.23,0.74c2.6,0,4.84-0.72,6.66-2.17c1.18-0.93,1.79-2.22,1.85-3.91
		c-0.05-1.94-1.59-3.84-4.58-5.58c-1.34-0.77-2.7-1.48-4.03-2.11c-4.19-1.96-7.41-4.24-9.54-6.78c-1.31-1.55-1.97-3.18-1.97-4.85
		c0-2.22,0.77-4.19,2.28-5.86c1.49-1.64,3.59-2.77,6.26-3.38c1.11-0.25,2.24-0.38,3.37-0.38c0.85,0,1.93,0.11,3.32,0.33
		c1.45,0.23,3.03,0.91,4.71,2.02c1.7,1.14,3.03,2.74,3.93,4.76l0.39,0.86l-3.44,1.39l-0.36-0.78c-1-2.1-2.5-3.47-4.59-4.2
		c-1.33-0.46-2.66-0.69-3.98-0.69c-2.66,0-4.8,0.73-6.55,2.23c-1.06,0.91-1.58,2.16-1.58,3.81c0.11,1.01,0.69,2.09,1.74,3.13
		c1.15,1.14,2.46,2.16,3.87,3.02c1.43,0.88,2.7,1.56,3.75,2.02c1.49,0.7,3.01,1.51,4.58,2.44c1.61,0.97,3.01,2.14,4.19,3.49
		c1.25,1.44,1.92,3.16,1.98,5.11c-0.04,2.39-0.91,4.44-2.57,6.13c-1.62,1.64-3.84,2.76-6.59,3.33
		C556.56,313.26,555.52,313.36,554.48,313.36 M549.63,310.63c2.44,0.93,5.12,1.12,7.59,0.64c2.38-0.49,4.28-1.44,5.65-2.82
		c1.34-1.36,2.01-2.95,2.04-4.84c-0.05-1.49-0.55-2.79-1.54-3.92c-1.04-1.2-2.31-2.25-3.75-3.12c-1.51-0.9-2.98-1.69-4.39-2.35
		c-1.11-0.48-2.45-1.19-3.96-2.12c-1.54-0.94-2.95-2.04-4.21-3.29c-1.36-1.35-2.12-2.81-2.27-4.34c-0.01-2.28,0.74-4.03,2.21-5.29
		c2.06-1.77,4.67-2.67,7.74-2.67c1.52,0,3.06,0.27,4.59,0.8c2.27,0.79,4.03,2.27,5.23,4.38l0.08-0.03c-0.73-1.3-1.69-2.36-2.86-3.14
		c-1.45-0.97-2.79-1.55-3.98-1.74c-1.27-0.2-2.29-0.3-3.03-0.3c-0.98,0-1.98,0.11-2.96,0.33c-2.29,0.53-4.08,1.48-5.31,2.84
		c-1.22,1.34-1.81,2.85-1.81,4.63c0,1.22,0.52,2.45,1.55,3.67c1.96,2.33,4.96,4.44,8.92,6.3c1.38,0.66,2.77,1.38,4.16,2.18
		c3.58,2.09,5.42,4.49,5.49,7.17c-0.09,2.28-0.95,4.06-2.55,5.33c-2.15,1.69-4.77,2.55-7.79,2.55c-1.62,0-3.24-0.28-4.84-0.85
		C549.64,310.64,549.63,310.64,549.63,310.63 M544.34,306.31c0.92,1.61,2.17,2.82,3.8,3.66c-1.56-0.85-2.8-2.09-3.72-3.69
		L544.34,306.31z"/>
	<rect x="581.12" y="275.93" class="st0" width="1.92" height="36.33"/>
	<path class="st0" d="M583.95,313.17h-3.75v-38.15h3.75V313.17z M582.03,311.34h0.1v-34.5h-0.1V311.34z"/>
	<polygon class="st0" points="628.39,312.39 598.34,280.47 598.34,312.26 596.41,312.26 596.41,275.66 626.47,307.59 626.47,275.93 
		628.39,275.93 	"/>
	<path class="st0" d="M629.31,314.69l-30.06-31.93v30.4h-3.75v-39.81l30.06,31.93v-30.27h3.75V314.69z M597.32,311.34h0.1v-33.18
		l30.05,31.93v-33.25h-0.1v33.04l-30.06-31.93V311.34z"/>
	<polygon class="st0" points="663.74,312.26 641.46,312.26 641.46,275.93 663.74,275.93 663.74,277.83 643.35,277.83 643.35,292.91 
		660.56,292.91 660.56,294.81 643.35,294.81 643.35,310.36 663.74,310.36 	"/>
	<path class="st0" d="M664.65,313.17h-24.11v-38.15h24.11v3.72h-20.39V292h17.2v3.72h-17.2v13.73h20.39V313.17z M642.36,311.34
		l20.46-0.07h-20.39V293.9l17.2-0.07h-17.2v-16.91l20.39-0.07h-20.46V311.34z"/>
	<path class="st0" d="M687.82,312.45c-2.3,0-4.52-0.54-6.65-1.61c-2.13-1.07-3.71-2.73-4.75-4.98l1.76-0.74
		c1.08,2.29,2.79,3.84,5.11,4.67c1.5,0.53,3.02,0.8,4.53,0.8c2.82,0,5.23-0.78,7.23-2.37c1.39-1.1,2.12-2.63,2.2-4.59
		c-0.06-2.35-1.73-4.48-5.03-6.41c-1.38-0.78-2.74-1.5-4.1-2.14c-4.1-1.92-7.18-4.1-9.23-6.54c-1.18-1.39-1.76-2.81-1.76-4.26
		c0-2,0.68-3.74,2.05-5.24c1.36-1.5,3.29-2.54,5.78-3.11c1.04-0.23,2.09-0.36,3.16-0.36c0.78,0,1.85,0.11,3.17,0.32
		c1.33,0.21,2.78,0.83,4.34,1.88c1.56,1.04,2.77,2.5,3.61,4.37l-1.76,0.72c-1.09-2.31-2.8-3.87-5.11-4.68
		c-1.43-0.5-2.85-0.75-4.28-0.75c-2.86,0-5.24,0.82-7.15,2.45c-1.27,1.08-1.9,2.58-1.9,4.51c0.13,1.32,0.8,2.58,2.01,3.77
		c1.21,1.2,2.55,2.25,4.04,3.16c1.48,0.91,2.78,1.6,3.87,2.08c1.45,0.67,2.93,1.47,4.47,2.39c1.53,0.91,2.85,2.02,3.96,3.3
		c1.12,1.28,1.71,2.79,1.76,4.53c-0.04,2.12-0.81,3.95-2.31,5.47c-1.5,1.52-3.54,2.54-6.13,3.07
		C689.78,312.36,688.81,312.45,687.82,312.45"/>
	<path class="st0" d="M687.82,313.36c-2.44,0-4.81-0.57-7.06-1.7c-2.3-1.16-4.05-2.98-5.17-5.42l-0.4-0.85l3.44-1.45l0.37,0.79
		c0.98,2.08,2.48,3.45,4.59,4.21c1.39,0.49,2.82,0.74,4.23,0.74c2.6,0,4.84-0.72,6.66-2.17c1.18-0.93,1.79-2.22,1.85-3.91
		c-0.05-1.94-1.59-3.84-4.58-5.58c-1.34-0.77-2.7-1.48-4.03-2.11c-4.19-1.96-7.41-4.24-9.54-6.78c-1.31-1.55-1.97-3.18-1.97-4.85
		c0-2.22,0.77-4.19,2.28-5.86c1.49-1.64,3.59-2.77,6.26-3.38c1.11-0.25,2.24-0.38,3.37-0.38c0.85,0,1.93,0.11,3.32,0.33
		c1.45,0.23,3.03,0.91,4.71,2.02c1.7,1.14,3.03,2.74,3.93,4.76l0.39,0.86l-3.44,1.39l-0.36-0.78c-1-2.1-2.5-3.47-4.59-4.2
		c-1.33-0.46-2.66-0.69-3.98-0.69c-2.66,0-4.8,0.73-6.55,2.23c-1.06,0.91-1.58,2.16-1.58,3.81c0.11,1.01,0.69,2.09,1.74,3.13
		c1.15,1.14,2.46,2.16,3.87,3.02c1.43,0.88,2.7,1.56,3.75,2.02c1.49,0.7,3.01,1.51,4.58,2.44c1.61,0.97,3.01,2.14,4.19,3.49
		c1.25,1.44,1.92,3.16,1.98,5.11c-0.04,2.39-0.91,4.44-2.57,6.13c-1.62,1.64-3.84,2.76-6.59,3.33
		C689.9,313.26,688.86,313.36,687.82,313.36 M682.97,310.63c2.44,0.93,5.12,1.12,7.59,0.64c2.38-0.49,4.28-1.44,5.65-2.82
		c1.34-1.36,2.01-2.95,2.04-4.84c-0.05-1.49-0.55-2.79-1.54-3.92c-1.04-1.2-2.31-2.25-3.75-3.12c-1.51-0.9-2.98-1.69-4.39-2.35
		c-1.11-0.48-2.45-1.19-3.96-2.12c-1.54-0.94-2.95-2.04-4.21-3.29c-1.36-1.35-2.12-2.81-2.27-4.34c-0.01-2.28,0.74-4.03,2.21-5.29
		c2.06-1.77,4.67-2.67,7.74-2.67c1.52,0,3.06,0.27,4.59,0.8c2.27,0.79,4.03,2.27,5.23,4.38l0.08-0.03c-0.73-1.3-1.69-2.36-2.86-3.14
		c-1.45-0.97-2.79-1.55-3.98-1.74c-1.27-0.2-2.29-0.3-3.03-0.3c-0.98,0-1.98,0.11-2.96,0.33c-2.29,0.53-4.08,1.48-5.31,2.84
		c-1.22,1.34-1.81,2.85-1.81,4.63c0,1.22,0.52,2.45,1.55,3.67c1.96,2.33,4.96,4.44,8.92,6.3c1.38,0.66,2.77,1.38,4.16,2.18
		c3.58,2.09,5.42,4.49,5.49,7.17c-0.09,2.28-0.95,4.06-2.55,5.33c-2.15,1.69-4.77,2.55-7.79,2.55c-1.62,0-3.24-0.28-4.84-0.85
		C682.98,310.64,682.97,310.64,682.97,310.63 M677.68,306.31c0.92,1.61,2.17,2.82,3.8,3.66c-1.56-0.85-2.8-2.09-3.72-3.69
		L677.68,306.31z"/>
	<path class="st0" d="M721.5,312.45c-2.31,0-4.53-0.54-6.65-1.61c-2.12-1.07-3.71-2.73-4.75-4.98l1.76-0.74
		c1.08,2.29,2.78,3.84,5.11,4.67c1.5,0.53,3.01,0.8,4.53,0.8c2.82,0,5.23-0.78,7.23-2.37c1.39-1.1,2.12-2.63,2.19-4.59
		c-0.06-2.35-1.73-4.48-5.03-6.41c-1.37-0.78-2.74-1.5-4.09-2.14c-4.11-1.92-7.18-4.1-9.23-6.54c-1.17-1.39-1.76-2.81-1.76-4.26
		c0-2,0.69-3.74,2.05-5.24c1.37-1.5,3.29-2.54,5.78-3.11c1.05-0.23,2.1-0.36,3.17-0.36c0.78,0,1.85,0.11,3.17,0.32
		c1.33,0.21,2.77,0.83,4.34,1.88c1.56,1.04,2.77,2.5,3.61,4.37l-1.76,0.72c-1.1-2.31-2.81-3.87-5.11-4.68
		c-1.43-0.5-2.86-0.75-4.28-0.75c-2.86,0-5.24,0.82-7.15,2.45c-1.27,1.08-1.9,2.58-1.9,4.51c0.13,1.32,0.8,2.58,2.01,3.77
		c1.21,1.2,2.56,2.25,4.05,3.16c1.48,0.91,2.77,1.6,3.87,2.08c1.45,0.67,2.93,1.47,4.47,2.39c1.53,0.91,2.85,2.02,3.97,3.3
		c1.12,1.28,1.7,2.79,1.76,4.53c-0.03,2.12-0.81,3.95-2.3,5.47c-1.51,1.52-3.55,2.54-6.13,3.07
		C723.45,312.36,722.49,312.45,721.5,312.45"/>
	<path class="st0" d="M721.5,313.36c-2.44,0-4.82-0.57-7.06-1.7c-2.3-1.16-4.05-2.98-5.17-5.42l-0.39-0.85l3.43-1.45l0.38,0.79
		c0.98,2.08,2.48,3.45,4.59,4.21c1.4,0.49,2.82,0.74,4.23,0.74c2.6,0,4.84-0.72,6.66-2.17c1.18-0.93,1.79-2.22,1.85-3.91
		c-0.05-1.94-1.59-3.84-4.58-5.58c-1.34-0.77-2.7-1.48-4.03-2.11c-4.19-1.96-7.41-4.24-9.53-6.78c-1.32-1.55-1.98-3.18-1.98-4.85
		c0-2.22,0.77-4.19,2.28-5.86c1.49-1.64,3.6-2.77,6.26-3.38c1.11-0.25,2.24-0.38,3.37-0.38c0.84,0,1.92,0.11,3.31,0.33
		c1.45,0.23,3.04,0.91,4.71,2.02c1.7,1.14,3.03,2.74,3.94,4.76l0.39,0.86l-3.43,1.39l-0.37-0.78c-1-2.1-2.5-3.47-4.59-4.2
		c-1.32-0.46-2.66-0.69-3.98-0.69c-2.66,0-4.8,0.73-6.55,2.23c-1.06,0.91-1.58,2.16-1.58,3.81c0.11,1.01,0.69,2.09,1.74,3.13
		c1.16,1.14,2.46,2.16,3.87,3.02c1.44,0.88,2.7,1.56,3.76,2.02c1.48,0.7,3.01,1.51,4.58,2.44c1.61,0.97,3.01,2.14,4.18,3.49
		c1.26,1.44,1.92,3.16,1.98,5.11c-0.04,2.39-0.9,4.44-2.57,6.13c-1.62,1.64-3.84,2.76-6.59,3.33
		C723.58,313.26,722.54,313.36,721.5,313.36 M716.64,310.63c2.45,0.93,5.13,1.12,7.59,0.64c2.38-0.49,4.28-1.44,5.65-2.82
		c1.34-1.36,2.01-2.95,2.04-4.84c-0.05-1.49-0.55-2.79-1.54-3.92c-1.04-1.2-2.31-2.25-3.75-3.12c-1.51-0.9-2.98-1.69-4.38-2.35
		c-1.12-0.48-2.45-1.19-3.96-2.12c-1.54-0.94-2.95-2.04-4.21-3.29c-1.36-1.35-2.12-2.81-2.27-4.34c-0.01-2.28,0.74-4.03,2.21-5.29
		c2.07-1.77,4.67-2.67,7.74-2.67c1.52,0,3.06,0.27,4.58,0.8c2.27,0.79,4.03,2.27,5.23,4.38l0.08-0.03c-0.73-1.3-1.69-2.36-2.86-3.14
		c-1.45-0.97-2.79-1.55-3.98-1.74c-1.27-0.2-2.29-0.3-3.02-0.3c-0.99,0-1.98,0.11-2.96,0.33c-2.29,0.53-4.08,1.48-5.31,2.84
		c-1.22,1.34-1.82,2.85-1.82,4.63c0,1.22,0.52,2.45,1.55,3.67c1.96,2.33,4.96,4.44,8.92,6.3c1.38,0.66,2.77,1.38,4.16,2.18
		c3.58,2.09,5.43,4.49,5.49,7.17c-0.09,2.28-0.94,4.06-2.55,5.33c-2.15,1.69-4.77,2.55-7.79,2.55c-1.62,0-3.25-0.28-4.84-0.85
		C716.65,310.64,716.65,310.64,716.64,310.63 M711.35,306.31c0.92,1.61,2.17,2.82,3.8,3.66c-1.56-0.85-2.8-2.09-3.71-3.69
		L711.35,306.31z"/>
</g>
</svg>
