<?xml version="1.0" encoding="utf-8"?>
<!-- Generator: Adobe Illustrator 25.3.1, SVG Export Plug-In . SVG Version: 6.00 Build 0)  -->
<svg version="1.1" id="Capa_1" xmlns="http://www.w3.org/2000/svg" xmlns:xlink="http://www.w3.org/1999/xlink" x="0px" y="0px"
	 viewBox="0 0 449.9 247" style="enable-background:new 0 0 449.9 247;" xml:space="preserve">
<style type="text/css">
	.st0{fill:#FCDB04;}
</style>
<g>
	<polygon class="st0" points="105.4,73.3 105.4,142.5 98.8,142.5 98.8,83.2 	"/>
	<polygon points="66.3,116.2 64.1,116.2 31.3,65.3 31.3,142.5 24.8,142.5 24.8,56.9 32.5,56.9 65,106.8 97.2,56.9 105.1,56.9 	"/>
	<rect x="135" y="56.9" width="6.6" height="85.6"/>
	<polygon points="174.1,56.9 232.2,127.7 232.2,56.9 238.7,56.9 238.7,142.5 236.2,142.5 177.8,71.9 177.8,142.5 171.2,142.5 
		171.2,56.9 	"/>
	<polygon points="293.1,63.5 261.8,63.5 261.8,56.9 329.3,56.9 329.3,63.5 299.6,63.5 299.6,142.5 293.1,142.5 	"/>
	<path d="M422.2,142.5l-9.6-21.4h-52l-9.5,21.4h-6.5L383,56.9h7.2l38.4,85.6H422.2z M409.6,114.6l-22.9-51.9l-22.9,51.9H409.6z"/>
</g>
<g>
	<path d="M174.3,173.8h-7.7v-1.5h17v1.5h-7.7v19.8h-1.6V173.8z"/>
	<path d="M204,193.5h-2.2l-7.4-8.1h-5.8v8.1h-1.6v-21.3c3.1,0,6.2,0,9.4,0c4.6,0,7,3.3,7,6.6c0,3.5-2.2,6.5-6.9,6.5L204,193.5z
		 M188.7,183.9h7.5c3.7,0,5.3-2.1,5.4-5.1c0-2.5-1.7-5.1-5.2-5.1h-7.7V183.9z"/>
	<path d="M225.2,193.5l-2.3-5.2h-12.7l-2.3,5.2h-1.8l9.5-21.3h1.8l9.5,21.3H225.2z M222.3,186.8l-5.7-12.9l-5.7,12.9H222.3z"/>
	<path d="M246.5,172.3l-8.8,21.3H236l-8.8-21.3h1.8l7.9,19.4l7.9-19.4H246.5z"/>
	<path d="M252,182.1h12.5v1.5H252v8.4h13.4v1.6h-15v-21.3h14.7v1.5H252V182.1z"/>
	<path d="M271.8,172.3V192h12v1.5h-13.6v-21.3H271.8z"/>
</g>
</svg>
