<svg id="Capa_1" data-name="Capa 1" xmlns="http://www.w3.org/2000/svg" viewBox="0 0 359.95 512"><defs><style>.cls-1{fill:#f9f9f9;}</style></defs><path class="cls-1" d="M256.47,511l-10.83-11.64a974.7,974.7,0,0,1-77.91-98.13c-53.37-76.73-83.56-144-89.71-200A177.19,177.19,0,0,1,76.5,179c0-99.23,80.74-180,180-180s179.94,80.72,180,179.94a178.48,178.48,0,0,1-1.48,22c-6,56-36.17,123.34-89.61,200.17a973,973,0,0,1-78.05,98.27Zm0-482.38c-82.91,0-150.36,67.45-150.36,150.36a147,147,0,0,0,1.3,18.67l0,.25c11.23,102.73,114.89,229.71,149,269.08,34.19-39.39,138.07-166.58,149-269.34l0-.25A147.73,147.73,0,0,0,406.84,179C406.81,96.06,339.36,28.62,256.48,28.62Zm0,271.41a121.05,121.05,0,1,1,121-121A121.19,121.19,0,0,1,256.48,300Zm0-212.48A91.43,91.43,0,1,0,347.88,179,91.53,91.53,0,0,0,256.48,87.55Z" transform="translate(-76.5 1)"/></svg>